<svg width="23" height="40" viewBox="0 0 23 40" fill="none" xmlns="http://www.w3.org/2000/svg">
<path d="M21.6587 38.7708C22.1974 38.2209 22.5 37.4753 22.5 36.6978C22.5 35.9204 22.1974 35.1747 21.6587 34.6249L7.43565 20.1115L21.6587 5.5981C22.1821 5.04512 22.4717 4.30449 22.4652 3.53573C22.4587 2.76697 22.1565 2.03158 21.6237 1.48797C21.091 0.94435 20.3703 0.636001 19.6169 0.629321C18.8635 0.622642 18.1377 0.918166 17.5958 1.45225L1.34128 18.0386C0.802607 18.5884 0.499999 19.334 0.499999 20.1115C0.499999 20.889 0.802607 21.6346 1.34128 22.1844L17.5958 38.7708C18.1346 39.3204 18.8654 39.6292 19.6273 39.6292C20.3892 39.6292 21.1199 39.3204 21.6587 38.7708Z" fill="white"/>
</svg>
