<svg width="23" height="40" viewBox="0 0 23 40" fill="none" xmlns="http://www.w3.org/2000/svg">
<path d="M1.34128 1.48766C0.802607 2.0375 0.499998 2.78313 0.499998 3.56059C0.499999 4.33805 0.802607 5.08368 1.34128 5.63351L15.5644 20.1469L1.34128 34.6603C0.817878 35.2133 0.52826 35.9539 0.534806 36.7227C0.541352 37.4915 0.843541 38.2268 1.37628 38.7705C1.90902 39.3141 2.6297 39.6224 3.38308 39.6291C4.13646 39.6358 4.86228 39.3403 5.4042 38.8062L21.6587 22.2198C22.1974 21.67 22.5 20.9244 22.5 20.1469C22.5 19.3695 22.1974 18.6238 21.6587 18.074L5.40419 1.48766C4.86536 0.937999 4.13464 0.629214 3.37273 0.629214C2.61082 0.629214 1.88011 0.937999 1.34128 1.48766Z" fill="white"/>
</svg>
