<svg width="256" height="255" viewBox="0 0 256 255" fill="none" xmlns="http://www.w3.org/2000/svg">
<path d="M175.325 163L181 126H145.5V101.99C145.5 91.866 150.459 82 166.36 82H182.5V50.5C182.5 50.5 167.852 48 153.847 48C124.61 48 105.5 65.72 105.5 97.8V126H73V163H105.5V252.445C112.116 253.482 118.803 254.002 125.5 254C132.197 254.002 138.884 253.482 145.5 252.445V163H175.325Z" fill="white"/>
<path d="M256 128C256 57.308 198.692 0 128 0C57.308 0 0 57.307 0 128C0 191.888 46.808 244.843 108 254.445V165H75.5V128H108V99.8C108 67.72 127.11 50 156.347 50C170.352 50 185 52.5 185 52.5V84H168.86C152.958 84 148 93.867 148 103.99V128H183.5L177.825 165H148V254.445C209.192 244.843 256 191.889 256 128Z" fill="#1877F2"/>
</svg>
