<svg version="1.1" xmlns="http://www.w3.org/2000/svg" xmlns:xlink="http://www.w3.org/1999/xlink" x="0px" y="0px"
	 viewBox="0 0 437.653 173.97" enable-background="new 0 0 437.653 173.97" xml:space="preserve">
<g id="Calque_2_-_copie">
	<g>
		<path fill="#8A8C8A" stroke="#8A8C8A" stroke-miterlimit="10" d="M25.444,39.672c10.709-12.064,24.354-28.13,30.434-28.142
			c6.08-0.013,3.353,20.145,2.966,23.066c0,0,24.197-28.091,40.15-24.645c14.963,3.233,9.078,29.222,0,58.953
			c-9.703,31.78-25.203,57.898-29.339,57.898c-4.198,0,1.121-14.501,6.69-29.701c5.569-15.201,15.099-45.249,9.19-63.163
			c-1.411-3.753-31.698,19.413-36.473,20.651c-4.613,1.196-0.626-21.404-2.411-21.64c-2.081-0.275-10.639,8.138-19.53,17.849
			c-3.688,4.028-12.93,14.362-15.182,17.433c-3.041,4.146-7.976,4.017-7.39,0.547C5.249,64.621,22.513,42.973,25.444,39.672z"/>
		<path fill="#8A8C8A" stroke="#8A8C8A" stroke-miterlimit="10" d="M186.033,38.377c-2.069-1.309-4.932-3.223-9.673-6.361
			c-4.74-3.138-8.771-4.873-14.906-7.565c-5.061-2.221-29.269-13.143-35.636-11.359c-7.037,1.972-9.563,10.511-10.259,13.598
			s1.814,8.993,5.235,8.548c3.421-0.445,11.579-9.055,13.704-9.863c2.125-0.809,8.7,8.56,8.7,8.56
			c-10.8,2.064-33.887,11.123-31.678,20.638c2.209,9.515,28.916,14.423,41.113,15.208c12.196,0.785,16.264-1.217,20.035-2.65
			c3.77-1.433,6.724-1.573,12.015-1.845c5.291-0.272,6.214-2.597,7.399-4.499c1.185-1.901,2.425-8.256,3.036-12.354
			C195.73,44.336,188.102,39.686,186.033,38.377z M132.94,52.996c0-1.25,5.558-3.313,9.02-5.316
			c3.462-2.003,11.101-4.622,13.413-4.241c2.312,0.38,4.061,2.659,5.472,7.218c1.411,4.559,3.466,4.776,3.466,5.276
			C146.162,62.746,132.94,55.809,132.94,52.996z"/>
		<path fill="#8A8C8A" stroke="#8A8C8A" stroke-miterlimit="10" d="M428.033,38.377c-2.069-1.309-4.932-3.223-9.673-6.361
			c-4.74-3.138-8.771-4.873-14.906-7.565c-5.061-2.221-29.269-13.143-35.636-11.359c-7.037,1.972-9.563,10.511-10.259,13.598
			s1.814,8.993,5.235,8.548c3.421-0.445,11.579-9.055,13.704-9.863c2.125-0.809,8.7,8.56,8.7,8.56
			c-10.8,2.064-33.887,11.123-31.678,20.638c2.209,9.515,28.916,14.423,41.113,15.208c12.196,0.785,16.264-1.217,20.035-2.65
			c3.77-1.433,6.724-1.573,12.015-1.845c5.291-0.272,6.214-2.597,7.399-4.499c1.185-1.901,2.425-8.256,3.036-12.354
			C437.73,44.336,430.102,39.686,428.033,38.377z M374.94,52.996c0-1.25,5.558-3.313,9.02-5.316
			c3.462-2.003,11.101-4.622,13.413-4.241c2.312,0.38,4.061,2.659,5.472,7.218c1.411,4.559,3.466,4.776,3.466,5.276
			C388.162,62.746,374.94,55.809,374.94,52.996z"/>
		<path fill="#8A8C8A" stroke="#8A8C8A" stroke-miterlimit="10" d="M202.839,49.095c0,0-0.603,12.191,2.81,12.484
			c3.412,0.293,8.228-7.901,8.664-20.523c0.436-12.622-1.411-15.461-2.644-16.666c-1.233-1.206-2.59-0.925-3.824-1.585
			c-1.234-0.66-4.918-3.129-7.695-2.562s-3.901,3.007-5.12,8.099S192.96,46.443,202.839,49.095z"/>
		<path fill="#8A8C8A" stroke="#8A8C8A" stroke-miterlimit="10" d="M237.258,16.71c4.185-0.167,9.347,2.132,14.043,8.47
			c4.696,6.338,12.482,19.932,12.434,26.686c-0.048,6.755-1.127,11.543-3.56,13.796c-2.434,2.253-3.452,2.432-6.845-1.742
			c-3.393-4.174-5.895-11.333-9.269-13.799c-3.374-2.466-8.243-5.289-9.556-6.975c-1.313-1.687-4.748-6.463-8.324-8.42
			c-3.576-1.956-9.631-3.911-10.797-6.712c-1.325-3.183,4.57-4.752,6.689-5.48C224.192,21.806,233.454,16.862,237.258,16.71z"/>
		<path fill="#8A8C8A" stroke="#8A8C8A" stroke-miterlimit="10" d="M286.535,21.415c0,0-6.68,3.898-10.952,9.209
			s-4.464,11.574-4.126,16.495s1.11,12.26,2.888,12.85c1.778,0.59,4.136-0.221,5.27-0.659c0.506,1.598,2.624,7.935,12.191,7.248
			c3.507,2.437,4.834,3.544,6.684,3.305c1.85-0.24,10.775-1.699,15.289-7.413c5.344-6.766,2.407-15.953-2.228-16.899
			c-5.044-1.03-4.811,12.033-17.802,11.419c-12.626-0.597-4.872-10.092-2.203-13.054c2.846-3.159,9.014-5.043,10.477-12.944
			c4.475,1.151,10.479,3.964,16.164,10.214s11.076,15.863,13.693,19.681c2.617,3.819,11.181,12.161,14.024,14.052
			s5.604,0.543,2.258-7.712c-3.346-8.254-8.967-16.444-14.344-24.053s-11.468-15.57-11.967-17.855
			c-0.499-2.286-0.342-3.596-2.662-5.916S305.327,6.543,299.061,6.5c-3.188-0.022-14.313,4.933-14.378,9.392
			C284.632,19.376,286.535,21.415,286.535,21.415z"/>
		<path fill="#8A8C8A" stroke="#8A8C8A" stroke-miterlimit="10" d="M313.372,142.015c0,0-2.856-3.3-6.135-2.132
			c-3.432,2.753-16.446,12.801-37.89,13.575c-24.737,0.893-35.389-7.047-48.389-6.91c0,0-14.851-1.36-19.115,4.196
			c-4.264,5.556-6.805,9.096-7.629,9.724c-0.823,0.628-4.981,3.217-4.826,3.679c0.154,0.461,2.085,7.393,19.911,8.965
			c17.826,1.572,34.538-2.351,43.266-5.39c8.727-3.038,11.429,0.647,23.05-2.277C287.234,162.522,301.953,159.512,313.372,142.015z"
			/>
		<path fill="#8A8C8A" stroke="#8A8C8A" stroke-miterlimit="10" d="M182.988,98.554l-1.599,11.596c0,0-11.83-2.096-18.798-1.198
			c9.729,0.045,23.699,4.564,22.033,16.771c-2.036,14.915-36.096,8.322-39.632,7.225c0.428-2.07,2.399-11.597,2.399-11.597
			s10.732,3.066,18.399,1.199c-5.149-1.365-22.341-6.086-20.254-15.643C147.624,97.35,161.686,93.259,182.988,98.554z"/>
		<path fill="#8A8C8A" stroke="#8A8C8A" stroke-miterlimit="10" d="M224.182,132.552c0,0,0-7.702,0-11.202
			c-14.775,5.5-11.2-10.847-11.2-10.847h11.2V98.851h-10.398v-9.094h-17.597v9.094h-6.801v11.652h6.801
			c0,0-1.527,14.346,4.038,19.93C205.79,136.017,219.574,134.92,224.182,132.552z"/>
		<path fill="#8A8C8A" stroke="#8A8C8A" stroke-miterlimit="10" d="M258.04,96.217c-14.59,0-26.417,8.759-26.417,19.563
			c0,10.804,11.827,19.563,26.417,19.563c14.589,0,26.417-8.759,26.417-19.563C284.457,104.975,272.63,96.217,258.04,96.217z
			 M258.374,123.684c-4.648,0-8.417-3.768-8.417-8.417s3.768-8.417,8.417-8.417s8.417,3.768,8.417,8.417
			S263.022,123.684,258.374,123.684z"/>
		<path fill="#8A8C8A" stroke="#8A8C8A" stroke-miterlimit="10" d="M290.173,98.82l18.397-2.842l1.735,4.178
			c0,0,6.274-6.866,20.13-1.336c-2.202,5.778-5.065,13.288-5.065,13.288s-7.418-2.689-10.582-1.474s-3.021,4.716-3.021,7.549
			c0,2.833,0,16.281,0,16.281h-18.127c0,0,0.077-26.053-0.156-28.426C293.124,102.35,290.173,98.82,290.173,98.82z"/>
		<path fill="#8A8C8A" stroke="#8A8C8A" stroke-miterlimit="10" d="M341.1,98.021h18.664c0,0,0,17.995,0,18.996
			s0.113,5.199,5.07,5.266c4.957,0.067,5.063-2.6,5.063-5.266s0-18.996,0-18.996h18.664c0,0,0.401,40.996,0.066,45.162
			c-0.335,4.167-5.304,11.428-16.594,10.826c-11.29-0.603-12.331-3.669-12.645-5.815c-0.314-2.146-0.954-6.982-0.954-6.982h12.797
			v-9.598c0,0-3.956,3.411-15.44,2.873c-11.483-0.538-14.691-7.637-14.691-12.637S341.1,98.021,341.1,98.021z"/>
	</g>
</g>
<g id="Calque_2">
	<g>
		<path fill="#F8E600" stroke="#000000" stroke-miterlimit="10" d="M21.444,33.672C32.153,21.608,45.798,5.542,51.878,5.53
			s3.353,20.145,2.966,23.066c0,0,24.197-28.091,40.15-24.645c14.963,3.233,9.078,29.222,0,58.953
			c-9.703,31.78-25.203,57.898-29.339,57.898c-4.198,0,1.121-14.501,6.69-29.701c5.569-15.201,15.099-45.249,9.19-63.163
			c-1.411-3.753-31.698,19.413-36.473,20.651c-4.613,1.196-0.626-21.404-2.411-21.64c-2.081-0.275-10.639,8.138-19.53,17.849
			c-3.688,4.028-12.93,14.362-15.182,17.433c-3.041,4.146-7.976,4.017-7.39,0.547C1.249,58.621,18.513,36.973,21.444,33.672z"/>
		<path fill="#F8E600" stroke="#000000" stroke-miterlimit="10" d="M182.033,32.377c-2.069-1.309-4.932-3.223-9.673-6.361
			c-4.74-3.138-8.771-4.873-14.906-7.565c-5.061-2.221-29.269-13.143-35.636-11.359c-7.037,1.972-9.563,10.511-10.259,13.598
			s1.814,8.993,5.235,8.548c3.421-0.445,11.579-9.055,13.704-9.863c2.125-0.809,8.7,8.56,8.7,8.56
			c-10.8,2.064-33.887,11.123-31.678,20.638c2.209,9.515,28.916,14.423,41.113,15.208c12.196,0.785,16.264-1.217,20.035-2.65
			c3.77-1.433,6.724-1.573,12.015-1.845c5.291-0.272,6.214-2.597,7.399-4.499c1.185-1.901,2.425-8.256,3.036-12.354
			C191.73,38.336,184.102,33.686,182.033,32.377z M128.94,46.996c0-1.25,5.558-3.313,9.02-5.316
			c3.462-2.003,11.101-4.622,13.413-4.241c2.312,0.38,4.061,2.659,5.472,7.218c1.411,4.559,3.466,4.776,3.466,5.276
			C142.162,56.746,128.94,49.809,128.94,46.996z"/>
		<path fill="#F8E600" stroke="#000000" stroke-miterlimit="10" d="M424.033,32.377c-2.069-1.309-4.932-3.223-9.673-6.361
			c-4.74-3.138-8.771-4.873-14.906-7.565c-5.061-2.221-29.269-13.143-35.636-11.359c-7.037,1.972-9.563,10.511-10.259,13.598
			s1.814,8.993,5.235,8.548c3.421-0.445,11.579-9.055,13.704-9.863c2.125-0.809,8.7,8.56,8.7,8.56
			c-10.8,2.064-33.887,11.123-31.678,20.638c2.209,9.515,28.916,14.423,41.113,15.208c12.196,0.785,16.264-1.217,20.035-2.65
			c3.77-1.433,6.724-1.573,12.015-1.845c5.291-0.272,6.214-2.597,7.399-4.499c1.185-1.901,2.425-8.256,3.036-12.354
			C433.73,38.336,426.102,33.686,424.033,32.377z M370.94,46.996c0-1.25,5.558-3.313,9.02-5.316
			c3.462-2.003,11.101-4.622,13.413-4.241c2.312,0.38,4.061,2.659,5.472,7.218c1.411,4.559,3.466,4.776,3.466,5.276
			C384.162,56.746,370.94,49.809,370.94,46.996z"/>
		<path fill="#F8E600" stroke="#000000" stroke-miterlimit="10" d="M198.839,43.095c0,0-0.603,12.191,2.81,12.484
			c3.412,0.293,8.228-7.901,8.664-20.523c0.436-12.622-1.411-15.461-2.644-16.666c-1.233-1.206-2.59-0.925-3.824-1.585
			c-1.234-0.66-4.918-3.129-7.695-2.562s-3.901,3.007-5.12,8.099S188.96,40.443,198.839,43.095z"/>
		<path fill="#F8E600" stroke="#000000" stroke-miterlimit="10" d="M233.258,10.71c4.185-0.167,9.347,2.132,14.043,8.47
			c4.696,6.338,12.482,19.932,12.434,26.686c-0.048,6.755-1.127,11.543-3.56,13.796c-2.434,2.253-3.452,2.432-6.845-1.742
			s-5.895-11.333-9.269-13.799c-3.374-2.466-8.243-5.289-9.556-6.975c-1.313-1.687-4.748-6.463-8.324-8.42
			s-9.631-3.911-10.797-6.712c-1.325-3.183,4.57-4.752,6.689-5.48C220.192,15.806,229.454,10.862,233.258,10.71z"/>
		<path fill="#F8E600" stroke="#000000" stroke-miterlimit="10" d="M282.535,15.415c0,0-6.68,3.898-10.952,9.209
			s-4.464,11.574-4.126,16.495s1.11,12.26,2.888,12.85c1.778,0.59,4.136-0.221,5.27-0.659c0.506,1.598,2.624,7.935,12.191,7.248
			c3.507,2.437,4.834,3.544,6.684,3.305c1.85-0.24,10.775-1.699,15.289-7.413c5.344-6.766,2.407-15.953-2.228-16.899
			c-5.044-1.03-4.811,12.033-17.802,11.419c-12.626-0.597-4.872-10.092-2.203-13.054c2.846-3.159,9.014-5.043,10.477-12.944
			c4.475,1.151,10.479,3.964,16.164,10.214s11.076,15.863,13.693,19.681c2.617,3.819,11.181,12.161,14.024,14.052
			s5.604,0.543,2.258-7.712c-3.346-8.254-8.967-16.444-14.344-24.053s-11.468-15.57-11.967-17.855
			c-0.499-2.286-0.342-3.596-2.662-5.916S301.327,0.543,295.061,0.5c-3.188-0.022-14.313,4.933-14.378,9.392
			C280.632,13.376,282.535,15.415,282.535,15.415z"/>
		<path fill="#F8E600" stroke="#000000" stroke-miterlimit="10" d="M311.372,136.015c0,0-2.856-3.3-6.135-2.132
			c-3.432,2.753-16.446,12.801-37.89,13.575c-24.737,0.893-35.389-7.047-48.389-6.91c0,0-14.851-1.36-19.115,4.196
			c-4.264,5.556-6.805,9.096-7.629,9.724c-0.823,0.628-4.981,3.217-4.826,3.679c0.154,0.461,2.085,7.393,19.911,8.965
			c17.826,1.572,34.538-2.351,43.266-5.39c8.727-3.038,11.429,0.647,23.05-2.277C285.234,156.522,299.953,153.512,311.372,136.015z"
			/>
		<path fill="#F8E600" stroke="#000000" stroke-miterlimit="10" d="M180.988,92.554l-1.599,11.596c0,0-11.83-2.096-18.798-1.198
			c9.729,0.045,23.699,4.564,22.033,16.771c-2.036,14.915-36.096,8.322-39.632,7.225c0.428-2.07,2.399-11.598,2.399-11.598
			s10.732,3.066,18.399,1.199c-5.149-1.365-22.341-6.086-20.254-15.643C145.624,91.35,159.686,87.259,180.988,92.554z"/>
		<path fill="#F8E600" stroke="#000000" stroke-miterlimit="10" d="M222.182,126.552c0,0,0-7.702,0-11.202
			c-14.775,5.5-11.2-10.847-11.2-10.847h11.2V92.851h-10.398v-9.094h-17.597v9.094h-6.801v11.652h6.801
			c0,0-1.527,14.346,4.038,19.93C203.79,130.017,217.574,128.92,222.182,126.552z"/>
		<path fill="#F8E600" stroke="#000000" stroke-miterlimit="10" d="M256.04,90.217c-14.59,0-26.417,8.759-26.417,19.563
			c0,10.804,11.827,19.563,26.417,19.563c14.589,0,26.417-8.759,26.417-19.563C282.457,98.975,270.63,90.217,256.04,90.217z
			 M256.374,117.684c-4.648,0-8.417-3.768-8.417-8.417s3.768-8.417,8.417-8.417s8.417,3.768,8.417,8.417
			S261.022,117.684,256.374,117.684z"/>
		<path fill="#F8E600" stroke="#000000" stroke-miterlimit="10" d="M288.173,92.82l18.397-2.842l1.735,4.178
			c0,0,6.274-6.866,20.13-1.336c-2.202,5.778-5.065,13.288-5.065,13.288s-7.418-2.689-10.582-1.474s-3.021,4.716-3.021,7.549
			c0,2.833,0,16.281,0,16.281h-18.127c0,0,0.077-26.053-0.156-28.426C291.124,96.35,288.173,92.82,288.173,92.82z"/>
		<path fill="#F8E600" stroke="#000000" stroke-miterlimit="10" d="M339.1,92.021h18.664c0,0,0,17.995,0,18.996
			s0.113,5.199,5.07,5.266c4.957,0.067,5.063-2.6,5.063-5.266s0-18.996,0-18.996h18.664c0,0,0.401,40.996,0.066,45.162
			c-0.335,4.167-5.304,11.428-16.594,10.826c-11.29-0.603-12.331-3.669-12.645-5.815c-0.314-2.146-0.954-6.982-0.954-6.982h12.797
			v-9.598c0,0-3.956,3.411-15.44,2.873c-11.483-0.538-14.691-7.637-14.691-12.637S339.1,92.021,339.1,92.021z"/>
	</g>
</g>
</svg>
