<svg width="35" height="29" viewBox="0 0 35 29" fill="none" xmlns="http://www.w3.org/2000/svg">
<path fill-rule="evenodd" clip-rule="evenodd" d="M2.051 2.68015C-2.08616e-07 4.7294 0 8.0299 0 14.6292C0 21.2284 -2.08616e-07 24.5289 2.051 26.5781C4.10025 28.6291 7.40075 28.6292 14 28.6292H21C27.5993 28.6292 30.8997 28.6291 32.949 26.5781C35 24.5289 35 21.2284 35 14.6292C35 8.0299 35 4.7294 32.949 2.68015C30.8997 0.62915 27.5993 0.62915 21 0.62915H14C7.40075 0.62915 4.10025 0.62915 2.051 2.68015ZM29.008 6.78915C29.2307 7.05653 29.3381 7.40139 29.3066 7.74793C29.2751 8.09447 29.1073 8.41431 28.84 8.63715L24.997 11.8397C23.4447 13.1347 22.1882 14.1812 21.077 14.8952C19.922 15.6389 18.7967 16.1079 17.5 16.1079C16.2033 16.1079 15.078 15.6372 13.9212 14.8952C12.8117 14.1812 11.5553 13.1329 10.003 11.8414L6.16 8.6389C5.89243 8.41612 5.72432 8.09617 5.69265 7.74944C5.66098 7.40271 5.76834 7.0576 5.99113 6.79003C6.21391 6.52246 6.53386 6.35434 6.88059 6.32267C7.22732 6.291 7.57243 6.39837 7.84 6.62115L11.62 9.7694C13.2528 11.1291 14.385 12.0707 15.344 12.6867C16.2697 13.2817 16.898 13.4829 17.5018 13.4829C18.1055 13.4829 18.7338 13.2834 19.6595 12.6867C20.6168 12.0707 21.7508 11.1291 23.3835 9.7694L27.1618 6.6194C27.4293 6.39692 27.7744 6.28982 28.1209 6.32165C28.4674 6.35348 28.7854 6.52164 29.008 6.78915Z" fill="#FFA800"/>
</svg>
