<svg width="37" height="37" viewBox="0 0 37 37" fill="none" xmlns="http://www.w3.org/2000/svg">
<path d="M29.5173 29.1562C27.5001 29.1562 25.8827 30.7736 25.8827 32.7909C25.8827 33.7548 26.2656 34.6793 26.9472 35.361C27.6289 36.0426 28.5534 36.4255 29.5173 36.4255C30.4813 36.4255 31.4058 36.0426 32.0874 35.361C32.7691 34.6793 33.152 33.7548 33.152 32.7909C33.152 31.8269 32.7691 30.9024 32.0874 30.2208C31.4058 29.5391 30.4813 29.1562 29.5173 29.1562ZM0.440002 0.0788574V3.71352H4.07467L10.6171 17.5071L8.1455 21.9596C7.8729 22.4684 7.70934 23.0681 7.70934 23.7042C7.70934 24.6682 8.09227 25.5927 8.7739 26.2743C9.45554 26.9559 10.38 27.3389 11.344 27.3389H33.152V23.7042H12.1073C11.9868 23.7042 11.8712 23.6563 11.786 23.5711C11.7008 23.4859 11.6529 23.3704 11.6529 23.2499C11.6529 23.159 11.6711 23.0863 11.7075 23.0318L13.3431 20.0695H26.8822C28.2452 20.0695 29.4446 19.3062 30.0625 18.1977L36.5686 6.43952C36.6958 6.14875 36.7867 5.8398 36.7867 5.53086C36.7867 5.04887 36.5952 4.58663 36.2544 4.24581C35.9136 3.90499 35.4513 3.71352 34.9693 3.71352H8.09098L6.38268 0.0788574M11.344 29.1562C9.32676 29.1562 7.70934 30.7736 7.70934 32.7909C7.70934 33.7548 8.09227 34.6793 8.7739 35.361C9.45554 36.0426 10.38 36.4255 11.344 36.4255C12.308 36.4255 13.2325 36.0426 13.9141 35.361C14.5957 34.6793 14.9787 33.7548 14.9787 32.7909C14.9787 31.8269 14.5957 30.9024 13.9141 30.2208C13.2325 29.5391 12.308 29.1562 11.344 29.1562Z" fill="#ffff"/>
</svg>
