<svg width="29" height="30" viewBox="0 0 29 30" fill="none" xmlns="http://www.w3.org/2000/svg">
<path d="M12.7478 0.72583C15.0865 0.725667 17.3779 1.40741 19.3599 2.69303C21.3419 3.97866 22.9344 5.81622 23.9552 7.99543C24.9759 10.1746 25.3836 12.6075 25.1317 15.0154C24.8797 17.4234 23.9783 19.7093 22.5305 21.6115L27.882 27.1539C28.1489 27.4401 28.2966 27.8235 28.2933 28.2214C28.2899 28.6193 28.1358 28.9999 27.8641 29.2813C27.5925 29.5627 27.2249 29.7223 26.8407 29.7258C26.4565 29.7292 26.0863 29.5763 25.81 29.2998L20.4585 23.7574C18.8986 25.0307 17.0672 25.8991 15.1173 26.2902C13.1674 26.6814 11.1554 26.5839 9.24928 26.0059C7.34313 25.428 5.59808 24.3863 4.1597 22.9678C2.72132 21.5493 1.63133 19.7952 0.980668 17.8517C0.330007 15.9082 0.137544 13.8317 0.419334 11.7955C0.701124 9.7593 1.449 7.82242 2.60056 6.14644C3.75212 4.47046 5.27397 3.104 7.03915 2.16105C8.80433 1.2181 10.7616 0.726005 12.7478 0.72583ZM12.7478 3.7611C10.2217 3.7611 7.79899 4.8004 6.01274 6.65037C4.22649 8.50035 3.22299 11.0094 3.22299 13.6257C3.22299 16.242 4.22649 18.7511 6.01274 20.601C7.79899 22.451 10.2217 23.4903 12.7478 23.4903C15.2739 23.4903 17.6966 22.451 19.4829 20.601C21.2691 18.7511 22.2726 16.242 22.2726 13.6257C22.2726 11.0094 21.2691 8.50035 19.4829 6.65037C17.6966 4.8004 15.2739 3.7611 12.7478 3.7611ZM12.7478 5.27873C14.8853 5.27873 16.9353 6.15814 18.4467 7.7235C19.9581 9.28886 20.8073 11.4119 20.8073 13.6257C20.8073 15.8395 19.9581 17.9625 18.4467 19.5279C16.9353 21.0933 14.8853 21.9727 12.7478 21.9727C10.6103 21.9727 8.56034 21.0933 7.0489 19.5279C5.53746 17.9625 4.68834 15.8395 4.68834 13.6257C4.68834 11.4119 5.53746 9.28886 7.0489 7.7235C8.56034 6.15814 10.6103 5.27873 12.7478 5.27873Z" fill="#FFA800"/>
</svg>
